<svg xmlns="http://www.w3.org/2000/svg" xmlns:xlink="http://www.w3.org/1999/xlink" xmlns:xodm="http://www.corel.com/coreldraw/odm/2003" xml:space="preserve" version="1.1" style="shape-rendering:geometricPrecision;text-rendering:geometricPrecision;image-rendering:optimizeQuality;" viewBox="0 0 60000 75000" x="0px" y="0px" fill-rule="evenodd" clip-rule="evenodd"><defs><style type="text/css">
   
    .fil0 {fill:black;fill-rule:nonzero}
   
  </style></defs><g><path class="fil0" d="M37803.73 58681.72c-7.76,220.05 -192.45,392.14 -412.5,384.38 -220.05,-7.76 -392.14,-192.45 -384.38,-412.5 15.96,-445.2 39.36,-873.4 69.88,-1285.23 31.42,-423.9 70.9,-846.62 118.06,-1268.13 78.48,-701.2 177.56,-1391.61 295.73,-2071.95 118.77,-683.81 256.8,-1358.88 412.55,-2025.85 1855.4,-7944.77 6237.41,-14841.36 10619.4,-21737.89l318.58 -501.47c237.83,-374.48 15.14,-21.96 263.55,-411.25 1490.79,-2336.43 2061.34,-3231.37 1503.23,-6231.49l-4808.34 -7803.46c-7.62,-11.06 -14.74,-22.61 -21.33,-34.62l-537.3 -871.99 -1.15 0.7c-356.45,-580.09 -636.14,-947.34 -971.94,-1225.78 -339.09,-281.16 -756.76,-491.41 -1384.95,-754.08 -754.68,-315.57 -1503.34,-569.02 -2251.96,-822.45 -1120.11,-379.2 -2240.23,-758.41 -3408.07,-1350.41 -729.19,-369.63 -1383.91,-740.33 -2033.96,-1108.38 -733.56,-415.34 -1461.12,-827.27 -2302.68,-1237.38 -146.22,-71.25 -271.49,-114.66 -377.03,-132.93 -101.65,-17.59 -177.01,-12.11 -228.33,13.23 -43.57,21.51 -81.07,66.3 -112.44,130.68 -31.13,63.87 -54.44,142.23 -70.2,233.27 -87.4,504.84 226.64,1038.49 756.71,1570.54 589.46,591.65 1438.68,1168.71 2327.54,1706.58 695.66,420.95 1465.12,802.61 2244.85,1189.36 1473.09,730.66 2981.8,1479 4136.59,2540.52 250.06,229.86 769.03,886.38 1280.6,1579.71 551.82,747.88 1100.9,1545.8 1293.05,1894.52 133.72,177.13 268.37,379.64 414.34,617.2l-1.14 0.7 1865.24 3027.08c115.63,187.25 57.57,432.81 -129.68,548.44 -187.25,115.63 -432.81,57.57 -548.44,-129.68l-1866.09 -3028.48 -1.15 0.7c-301.85,-491.22 -537.89,-801.54 -819.76,-1035.26 -285.15,-236.44 -638.6,-414.18 -1171.07,-636.83 -644.48,-269.49 -1284.48,-486.16 -1924.46,-702.81 -960.74,-325.24 -1921.5,-650.5 -2925.11,-1159.24 -625.14,-316.9 -1186.45,-634.71 -1743.76,-950.25 -626.36,-354.65 -1247.6,-706.38 -1968.3,-1057.6 -120.28,-58.62 -222.32,-94.15 -307.23,-108.85 -74.64,-12.92 -127.45,-10.14 -160.45,6.15 -25.25,12.46 -48.68,41.88 -69.98,85.6 -24.29,49.84 -42.62,111.72 -55.16,184.18 -71.15,410.97 190.77,851.69 631.89,1294.46 500.49,502.36 1223.92,993.76 1981.67,1452.3 594.42,359.69 1251.66,685.69 1917.66,1016.03 967.86,480.06 1953.74,969.08 2814.84,1587.02 399.33,286.58 2633.05,2664.55 2699.32,6405.22 35.72,2016.32 -547.33,4433.75 -2370.63,7137.7 -1733.36,2570.53 -3635.24,3897.56 -5370.23,5108.12 -2633.63,1837.58 -4863.69,3393.6 -5359.75,8943.73 -18.98,219.19 -212.07,381.48 -431.26,362.5 -219.19,-18.98 -381.48,-212.07 -362.5,-431.26 529.31,-5922.21 2898.88,-7575.56 5697.25,-9528.09 1674.47,-1168.34 3510.01,-2449.07 5163.99,-4901.88 1719.23,-2549.62 2269.4,-4806.79 2236.25,-6678.32 -60.38,-3408.59 -2018.15,-5519.73 -2368.06,-5770.84 -802.72,-576.05 -1761.3,-1051.52 -2702.34,-1518.28 -687.64,-341.08 -1366.25,-677.67 -1977.04,-1047.27 -802.66,-485.72 -1576.51,-1013.83 -2134.79,-1574.18 -617.63,-619.94 -976.03,-1285.2 -853.77,-1991.34 25.72,-148.56 66.82,-282.68 123.9,-399.8 98.58,-202.3 242.81,-356.04 435.62,-451.22 185.07,-91.37 400.84,-120.82 647.95,-78.03 160.41,27.78 334.71,85.9 522.85,177.59 717.88,349.85 1362.3,714.7 2012.06,1082.6 546.28,309.29 1096.49,620.82 1709.38,931.51 951.03,482.09 1886.53,798.79 2821.99,1115.48 653.46,221.22 1306.95,442.45 1974.46,721.57 26.39,11.04 52.4,21.98 78.06,32.86 -20.07,-27.33 -40.14,-54.63 -60.24,-81.87 -481.46,-652.52 -962.48,-1263.59 -1180.6,-1464.09 -1071.81,-985.24 -2527.63,-1707.35 -3949.09,-2412.4 -801.37,-397.48 -1592.19,-789.74 -2304.23,-1220.6 -933.77,-565.05 -1833.42,-1178.82 -2480.66,-1828.46 -706.59,-709.22 -1117.1,-1467.41 -978.59,-2267.42 28.93,-167.14 75.02,-317.72 138.94,-448.89 108.65,-222.96 266.97,-392.06 478.08,-496.3 203.38,-100.41 441.7,-132.56 715.83,-85.11 181.04,31.34 378.56,97.34 592.65,201.67 838.73,408.73 1589.48,833.79 2346.44,1262.38 639.03,361.81 1282.63,726.22 1999.58,1089.64 1115.29,565.36 2210.13,936.02 3304.95,1306.65 762.1,257.99 1524.24,516.01 2301.96,841.21 249.82,104.46 470.85,202.35 670.49,300.45 -98.63,-148.11 -194.09,-288 -285.07,-417.74 -620.55,-884.87 -1400.13,-1726.79 -2166.61,-2554.54 -607.09,-655.65 -1206.21,-1302.65 -1719.64,-1959.79 -672.89,-861.24 -1296.05,-1754.89 -1668.88,-2589.41 -408.41,-914.15 -522.6,-1768.88 -108.63,-2467.7 85.64,-144.56 182.17,-268.55 289.27,-369.12 181.08,-170.04 389.2,-271.98 623.37,-294.33 225.72,-21.56 459.94,33.12 699.38,174.97 156.7,92.83 317.47,224.63 481.2,398.99 653.73,696.17 1197.45,1351.98 1745.68,2013.22 471.24,568.39 945.88,1140.87 1481.97,1730.04 845.8,929.55 1734.39,1662.64 2622.97,2395.72 623.23,514.17 1246.5,1028.37 1854.49,1605.57 550.83,522.94 908.36,917.31 1171.63,1382.34 87.33,154.26 162.72,313.49 229.72,484.79 -4.18,-112.85 -10.12,-215.52 -18.41,-306.14 -87.78,-959.89 -320.33,-1968.5 -548.96,-2960.16 -180.51,-782.99 -358.67,-1555.67 -466.29,-2303.89 -140.21,-974.79 -226.89,-1953.82 -144.06,-2777.67 91.45,-909.46 390.62,-1639.22 1040.16,-2007.34 137.17,-77.73 271.67,-133.19 401.77,-164.13 225.7,-53.7 442.06,-39.49 643.02,51.5 193.33,87.53 358.12,240.97 486.59,467.67 83.98,148.19 152.38,326.71 202.56,537.64 196.05,824 328.51,1587.15 462.05,2356.62 114.98,662.49 230.8,1329.76 381.87,2012.18 241.93,1092.73 609.05,2066.27 976.16,3039.78 256.75,680.85 513.51,1361.74 730.51,2086.32 196.68,656.72 299.68,1127.47 297.12,1615.52 -2.53,485.09 -110.48,955.93 -335.51,1608.92 -3.83,12.26 -8.25,24.44 -13.34,36.52 -298.92,710.61 -539.93,1265.06 -748.43,1744.68 -1293.6,2975.9 -1334.59,3070.85 -925.76,7266.28 355.08,2641.01 -288.85,3650.81 -1754.99,5948.58 -79.38,124.4 157.68,-247.08 -260.43,411.25l-318.58 501.47c-4346.04,6839.96 -8692.11,13679.97 -10516.28,21491.03 -152.57,653.37 -287.47,1312.87 -403.17,1978.97 -116.3,669.54 -213.3,1344.44 -289.47,2025.07 -45.59,407.42 -84.01,819.67 -114.94,1236.89 -31.81,429.3 -55.23,848.49 -69.88,1257.09zm-16560.21 -23541.25c-69.57,-119.19 -29.35,-272.23 89.84,-341.8 119.19,-69.57 272.23,-29.35 341.8,89.84 314.81,538.98 680.41,1067.66 1104.4,1574.57 395.35,472.67 841.61,927.24 1344.92,1354.64 105.17,88.98 118.28,246.39 29.3,351.56 -88.98,105.17 -246.39,118.28 -351.56,29.3 -526.88,-447.41 -993.17,-922.25 -1405.48,-1415.18 -444.4,-531.3 -826.03,-1082.76 -1153.22,-1642.93zm14811.24 20470.77c-15.09,136.99 -138.4,235.8 -275.39,220.71 -136.99,-15.09 -235.8,-138.4 -220.71,-275.39 78.04,-697.29 176.72,-1384.79 294.55,-2063.16 118.2,-680.49 255.65,-1352.64 410.8,-2017.05 31.28,-134.29 165.51,-217.8 299.8,-186.52 134.29,31.28 217.8,165.51 186.52,299.8 -153.18,655.94 -288.67,1318.36 -404.94,1987.75 -116.64,671.53 -214.02,1349.35 -290.63,2033.86zm-5026.75 -26469.05c-605.46,1.3 -1433.41,125.02 -2252.46,247.39 -779.21,116.43 -1550.6,231.66 -2154.6,241.86 540.67,441.23 1095.87,911.71 1548.47,1297.4 592.16,504.61 1017.86,751.96 1407.68,863.94 383.88,110.27 766.86,95.37 1253.85,69.6 14.42,-0.84 29.03,-0.92 43.79,-0.17 488.5,25.88 872.3,41.08 1257.01,-69.43 389.82,-111.98 815.52,-359.33 1407.68,-863.94 457.49,-389.87 1019.84,-866.36 1566.02,-1311.72 -543.05,-36.03 -1181.35,-131.37 -1824.98,-227.54 -819.05,-122.37 -1647,-246.09 -2252.46,-247.39zm-4845.01 -26.44c544.81,74.85 1525.92,-71.73 2520.29,-220.31 831.69,-124.26 1672.42,-249.88 2324.72,-251.29 652.3,1.41 1493.03,127.03 2324.72,251.29 821.92,122.81 1634.73,244.23 2199.63,240.4 -1609.57,-1551.73 -2713.06,-2502.22 -4466.68,-1247.07l-0.26 -0.37c-128.27,91.19 -304.16,101.09 -445.05,11.31 -1737.5,-1110.23 -2854.82,-298.08 -4457.37,1216.04zm4658.37 -2026.75c2212.56,-1452.48 3499.28,-234.63 5422.61,1624.89 145.97,-105.69 278.7,-196.87 393.48,-268.92 293.89,-184.48 572.94,-230.57 816.17,-186.5 143.6,26.03 271.66,82.95 381.51,161.87 106.55,76.52 194.82,172.79 262.39,280.43 136.42,217.33 192.53,488.35 146.75,741 -33.89,187.01 -121.79,363.21 -255.45,502.47 -109.06,113.62 -247.53,202.84 -410.81,253.67 -154.4,48.06 -330.04,61.12 -522,26.33 -264.49,-47.93 -561.75,-189.6 -872.88,-464.4 -165.55,129.55 -339.73,268.93 -517.59,413.39 -551.69,448.09 -1145.9,951.58 -1627.36,1361.87 -690.5,588.41 -1209.67,883.37 -1707.68,1026.44 -497.07,142.79 -939.47,127.92 -1496.08,98.62 -556.61,29.3 -999.02,44.17 -1496.09,-98.62 -498.01,-143.07 -1017.18,-438.03 -1707.68,-1026.44 -481.46,-410.29 -1075.66,-913.78 -1627.35,-1361.87 -177.87,-144.46 -352.05,-283.83 -517.59,-413.38 -311.15,274.8 -608.41,416.47 -872.91,464.4 -191.96,34.77 -367.6,21.72 -521.98,-26.34 -163.31,-50.86 -301.76,-140.05 -410.8,-253.67 -133.67,-139.26 -221.56,-315.46 -255.45,-502.47 -45.78,-252.64 10.33,-523.66 146.74,-740.99 67.56,-107.64 155.83,-203.88 262.38,-280.44 109.85,-78.92 237.91,-135.84 381.51,-161.87 243.24,-44.09 522.29,2.01 816.19,186.5 115.16,72.29 248.4,163.84 394.94,269.98 1917.37,-1831.2 3214.74,-2897 5395.03,-1625.95zm6019.59 2178.72c136.01,100.36 254.87,153.87 355.68,172.14 56.86,10.3 104.92,7.68 143.88,-4.45 30.04,-9.35 54.7,-24.9 73.31,-44.29 24.19,-25.2 40.06,-56.77 46.07,-89.97 10.45,-57.7 -3.81,-121.91 -37.37,-175.38 -15.04,-23.96 -32.96,-44.15 -53.01,-58.55 -16.73,-12.02 -35.75,-20.61 -56.51,-24.37 -59.83,-10.84 -142.88,9.54 -250.55,77.12 -66.88,41.98 -141.12,91.62 -221.5,147.75zm-12013.06 0c-80.38,-56.13 -154.62,-105.77 -221.5,-147.75 -107.68,-67.59 -190.73,-87.96 -250.57,-77.12 -20.76,3.76 -39.78,12.35 -56.51,24.37 -20.03,14.39 -37.96,34.59 -53,58.56 -33.56,53.46 -47.81,117.67 -37.36,175.37 6.02,33.21 21.87,64.76 46.07,89.97 18.61,19.39 43.26,34.94 73.3,44.29 38.97,12.13 87.02,14.75 143.86,4.46 100.82,-18.27 219.69,-71.78 355.71,-172.15zm354.02 29272.46c29.34,218.32 -123.86,419.1 -342.18,448.44 -218.32,29.34 -419.1,-123.86 -448.44,-342.18 -1636.52,-12032.26 -4782.6,-15782.77 -8957.55,-20759.8 -636.4,-758.68 -1296.66,-1545.77 -1995.92,-2415.68 -2146.8,-2670.69 -3583.08,-6869.64 -4922.57,-10785.7 -619.23,-1810.34 -1217.61,-3559.69 -1845.21,-5041.19 -3.74,-8.88 -7.12,-17.83 -10.17,-26.82l-0.77 0.26c-187.86,-555.56 -277.04,-956.27 -276.45,-1372.31 0.58,-413.92 90.17,-811.2 259.86,-1364.38 183.51,-598.23 402.34,-1167 621.15,-1735.74 308.88,-802.86 617.77,-1605.74 825.7,-2516.2l0.35 -1.48 -0.35 -0.08c136.5,-597.65 233.62,-1135.85 330.03,-1670.23 115.44,-639.82 229.95,-1274.39 398.34,-1961.82 44.82,-182.97 104.94,-337.1 178.11,-464.23 115.73,-201.08 263.83,-336.94 437.38,-414.12 182.09,-80.98 376.67,-92.79 578.42,-43.36 115.74,28.36 233.32,77.44 351.34,145.37 373.66,215.07 634.11,566.57 784.09,1011.75 83.56,-286.84 160.92,-580.42 230.02,-883l0.35 -1.48 -0.35 -0.08c181.71,-795.61 312.01,-1517.71 441.36,-2234.67 153.54,-850.98 305.84,-1694.98 529.95,-2609.86 56.78,-231.76 132.22,-425.75 223.56,-584.45 139.57,-242.47 316.41,-405.52 522.47,-497.15 214.6,-95.44 445.44,-108.97 686.08,-50.03 142.15,34.83 287.33,95.57 433.79,179.87 704.72,405.62 1025.61,1206.42 1119.15,2203.47 85.71,913.49 -17.38,1996.42 -179.69,3073.92 -125.23,831.29 -328.31,1686 -534.07,2552.13 -363.52,1530.15 -735.67,3096.88 -673.48,4535.78 275.03,-653.05 531.92,-1328.9 742.56,-2062.84 220.21,-767.23 392.21,-1490.44 562.97,-2208.51 196.9,-827.97 392.19,-1649.15 674.34,-2577 69.76,-229.41 155.38,-418.66 254.3,-570.58 153.1,-235.12 338.81,-388.5 549.57,-468.66 218.22,-83.02 449.76,-83.34 688.5,-10.74 141.13,42.92 282.5,111.19 422.57,202.4 681.43,443.76 957.87,1261.19 996.51,2262.15 35.23,912.71 -127.59,1988.93 -349.31,3058.07 -171.5,826.98 -420.73,1667.58 -673.26,2519.4 -451.64,1523.35 -914.19,3083.52 -921.92,4536.39 -1.44,271.93 164.73,1186.74 368.37,2173.52 137.55,666.53 291.33,1359.23 422.24,1907.88 158.06,-295.37 319.95,-587.58 481.83,-879.78 502.41,-906.82 1004.85,-1813.66 1404.49,-2865.15 254.83,-670.47 463.39,-1305.8 670.46,-1936.6 240.33,-732.14 478.71,-1458.27 799.51,-2264 82.31,-206.74 175.01,-373.61 276.08,-503.59 159.82,-205.52 345.48,-333.53 550.33,-392.39 209.97,-60.33 425.88,-42.51 642.79,43.86 129.51,51.55 254.76,125.1 374.72,218.38 589.24,458.18 779.52,1223.33 738.3,2136.09 -37.35,827.45 -265.04,1784.05 -545.08,2728.76 -216.41,730.03 -503.81,1466.77 -795.04,2213.34 -370.11,948.81 -746.56,1913.85 -971.68,2847.72 -96.23,399.2 -294.57,2277.17 147.88,4604.11 253.53,1333.39 720.14,2805.64 1542.37,4213.39 311.1,532.63 671.89,1054.48 1089.75,1554.06 390.24,466.55 830.49,915.05 1326.76,1336.47 535.23,454.5 1135.48,878.26 1808.22,1260.17 638.03,362.2 1340.02,687.03 2112.13,965.14 207.1,74.21 314.83,302.28 240.62,509.38 -74.21,207.1 -302.28,314.83 -509.38,240.62 -820.72,-295.62 -1564.09,-639.3 -2237.13,-1021.38 -719.4,-408.4 -1360.02,-860.47 -1930.08,-1344.55 -533.92,-453.39 -1006.22,-934.31 -1423.64,-1433.35 -450.53,-538.63 -836.98,-1096.92 -1167.87,-1663.44 -872.18,-1493.28 -1367.17,-3055.1 -1636.13,-4469.63 -467.24,-2457.33 -244.3,-4496.47 -138.5,-4935.37 241.63,-1002.34 625.5,-1986.42 1002.92,-2953.96 286.18,-733.62 568.6,-1457.6 773.18,-2147.72 265,-893.97 480.04,-1789.87 513.82,-2538.14 29.93,-662.95 -80.2,-1196.87 -432.04,-1470.45 -66.24,-51.5 -125.92,-88.35 -177.86,-109.02 -50.43,-20.08 -94.48,-26 -130.27,-15.72 -40.91,11.75 -86.91,48.77 -137.83,114.25 -59.63,76.7 -115.56,178.24 -166.72,306.73 -301.6,757.5 -540.19,1484.31 -780.75,2217.12 -208.86,636.26 -419.22,1277.08 -682.96,1970.98 -419,1102.42 -936.75,2036.92 -1454.49,2971.39 -340.33,614.28 -680.69,1228.57 -997.74,1908.53 -258.62,554.63 -408.76,945.06 -462.93,1329.26 -54.15,384.01 -18.67,792.8 93.38,1385.84 137.97,535.72 281.24,1166.81 422.42,1841.43 157.33,751.82 316.28,1579.73 464.8,2402.06 38.83,216.6 -105.28,423.67 -321.88,462.5 -216.6,38.83 -423.67,-105.28 -462.5,-321.88 -142.8,-790.65 -300.12,-1608.14 -461.68,-2380.18 -141.93,-678.2 -283.9,-1304.13 -417.67,-1821.87 -2.3,-8.87 -4.25,-17.75 -5.92,-26.62l-0.33 0.06c-129.81,-684.58 -169.26,-1168.39 -101.24,-1650.72 68.19,-483.63 238.28,-934.74 527.91,-1556 -149.63,-512.72 -428.42,-1712.14 -658.83,-2828.63 -212.47,-1029.6 -385.76,-2003.32 -383.99,-2336.02 8.36,-1571.44 486.41,-3183.88 953.18,-4758.27 249.13,-840.34 495,-1669.62 657.62,-2453.78 210.87,-1016.85 366.05,-2032.4 333.69,-2870.57 -28.95,-749.93 -205.74,-1342.61 -634.01,-1621.51 -79.47,-51.75 -153.05,-88.47 -219.45,-108.66 -67.13,-20.41 -125.58,-22.86 -172.86,-4.88 -54.75,20.82 -110.16,71.64 -165.19,156.16 -59.77,91.79 -113.73,213.44 -160.56,367.46 -261.64,860.39 -459.37,1691.81 -658.72,2530.12 -171.99,723.22 -345.22,1451.61 -572.33,2242.89 -359.33,1252.04 -845.52,2334.21 -1331.68,3416.36 -322,716.73 -644.03,1433.5 -929.51,2209.3 -235.94,641.16 -366.59,1090.77 -391.27,1528.14 -24.7,437.69 53.84,892.92 235.98,1548.21l1727.53 6244.46c3.04,9.58 5.69,19.2 7.98,28.86l1012.44 3659.64c58.68,212.28 -65.85,431.95 -278.13,490.63 -212.28,58.68 -431.95,-65.85 -490.63,-278.13l-1008.91 -3646.9 -4535.29 -10643.27c-3.97,-9.33 -7.55,-18.73 -10.76,-28.18l-0.18 0.06c-246.04,-727.6 -362.84,-1250.14 -362.08,-1788.19 0.75,-535.93 118.31,-1055.37 340.98,-1781.25 204.52,-666.69 441.22,-1304.05 683.19,-1936.6 2.4,-7.78 5.02,-15.53 7.93,-23.25 290.52,-769.49 410.93,-1505.75 355.08,-2097.99 -47.61,-504.86 -221.25,-889.09 -524.1,-1063.4 -52.16,-30.02 -99.78,-50.66 -141.96,-60.99 -30.96,-7.58 -53.5,-9.04 -65.92,-3.52 -20.97,9.33 -44.91,36.22 -71.76,82.88 -35.56,61.79 -67.09,146.09 -93.73,254.85 -164.9,673.16 -276.47,1291.49 -388.96,1914.94 -100.73,558.32 -202.2,1120.63 -336.29,1707.73l-0.34 -0.08c-219.2,959.23 -539.47,1791.68 -859.72,2624.1 -210.42,546.92 -420.85,1093.88 -602.41,1685.74 -147.29,480.15 -225.03,813.94 -225.48,1130 -0.44,313.23 75.29,640.81 234.75,1112.85 643.1,1521.49 1239.83,3265.95 1857.23,5070.95 1317.49,3851.74 2730.18,7981.73 4788.19,10541.96 673.86,838.31 1342.28,1635.14 1986.54,2403.18 4258.58,5076.73 7467.68,8902.36 9135.67,21166.04zm-14271.03 -46265.82c-9.47,25.93 -19.08,51.88 -28.88,77.84 -3.38,8.99 -7.08,17.77 -11.03,26.36 -233.68,611.18 -462.76,1229.07 -664.47,1886.61 -200.27,652.86 -305.98,1108.82 -306.6,1546.87 -0.61,433.31 101.84,880.68 317.52,1520.24l2188.18 5135.15 -133.31 -481.87c-206.13,-741.59 -294.29,-1269.71 -264.1,-1804.47 30.19,-535.06 176.04,-1047.11 438.15,-1759.38 279.75,-760.21 600.52,-1478.2 922.47,-2194.94 -4.99,-14.46 -9.23,-29.33 -12.61,-44.62 -61.58,-279.38 -111.26,-521.85 -143.22,-704.52 -33.66,-192.36 -55.52,-356.84 -61.63,-479.82 -77.96,-1569.44 310.72,-3205.45 690.22,-4802.84 202.17,-850.99 401.69,-1690.77 521.57,-2486.51 155.02,-1029.09 254.53,-2052.25 176.55,-2883.28 -70.13,-747.48 -279.26,-1329.75 -722.27,-1584.73 -80.61,-46.4 -155.83,-78.69 -224.41,-95.49 -69.84,-17.1 -128.65,-16.83 -173.58,3.15 -53.48,23.78 -106.18,77.87 -156.85,165.91 -53.74,93.37 -100.59,217.53 -139.18,375.07 -220.61,900.6 -369.98,1728.36 -520.57,2562.98 -133.67,740.9 -268.32,1487.11 -447.62,2272.17l-0.34 -0.08c-290.58,1271.79 -716.04,2377.62 -1141.46,3483.41 -34.2,88.9 -68.39,177.79 -102.53,266.79zm39165.79 3917.53l553.54 2896.04c175.72,-771.02 514.8,-1551.14 1075.75,-2841.6 219.21,-504.27 472.34,-1086.58 741.13,-1725.36 195.01,-566.49 288.52,-963.71 290.53,-1349.12 2.03,-388.73 -90.08,-797.34 -265.86,-1384.28 -211.99,-707.85 -461.89,-1370.54 -711.77,-2033.18 -375.61,-996.06 -751.24,-1992.16 -1007.4,-3149.16 -164.36,-742.47 -278.22,-1398.42 -391.25,-2049.68 -130.13,-749.85 -259.21,-1493.53 -452.67,-2306.62 -33.33,-140.08 -73.09,-248.66 -118.2,-328.26 -40.79,-71.98 -81.34,-115.38 -120.95,-133.31 -31.99,-14.48 -76.28,-14.4 -130.52,-1.5 -59.89,14.24 -124.36,41.22 -192.39,79.77 -387.58,219.65 -573.8,731.73 -640.16,1391.7 -74.96,745.56 8.1,1663.61 140.92,2587.05 103.25,717.91 277.38,1473.06 453.79,2238.27 233.5,1012.77 470.99,2042.85 564.6,3066.4 35.56,388.88 32.2,940.41 28.36,1570.69 -6.69,1096.34 -14.88,2439.22 182.54,3472.08l0.01 0.07zm90.28 4726.15l-1527.19 -7990.14 -2.46 -14.47c-126.05,-660.71 -256.62,-1099.84 -470.37,-1477.39 -216.58,-382.57 -532.8,-727.98 -1027.87,-1197.98 -596.61,-566.39 -1203.7,-1067.24 -1810.75,-1568.07 -915.21,-755.05 -1830.43,-1510.11 -2707.33,-2473.84 -555.07,-610.03 -1032.73,-1186.15 -1506.97,-1758.16 -544.99,-657.34 -1085.52,-1309.28 -1711.32,-1975.72 -110.62,-117.81 -212.68,-202.97 -306.2,-258.37 -88.67,-52.53 -161.06,-74.16 -218.12,-68.71 -48.61,4.64 -99.55,33.05 -151.49,81.83 -51.05,47.93 -100.75,113.26 -148.65,194.12 -260.97,440.54 -157.07,1050.8 149.25,1736.44 341.89,765.26 930.17,1606.3 1568.88,2423.79 499.62,639.45 1083.87,1270.41 1675.9,1909.79 786.05,848.89 1585.54,1712.31 2235.35,2638.9 348.58,497.07 765.05,1146.26 1179.2,1842.21 382.87,643.39 758.89,1317.52 1072.24,1938.22l3707.9 6017.55z"/></g><text x="0" y="60015" fill="#000000" font-size="5px" font-weight="bold" font-family="'Helvetica Neue', Helvetica, Arial-Unicode, Arial, Sans-serif">Created by Olena Panasovska</text><text x="0" y="60020" fill="#000000" font-size="5px" font-weight="bold" font-family="'Helvetica Neue', Helvetica, Arial-Unicode, Arial, Sans-serif">from the Noun Project</text></svg>